<mxfile host="app.diagrams.net" agent="Mozilla/5.0 (Windows NT 10.0; Win64; x64) AppleWebKit/537.36 (KHTML, like Gecko) Chrome/126.0.0.0 Safari/537.36" version="24.7.4">
  <diagram name="페이지-1" id="qZazr193hUHMwVS4NR-1">
    <mxGraphModel dx="1434" dy="746" grid="1" gridSize="10" guides="1" tooltips="1" connect="1" arrows="1" fold="1" page="1" pageScale="1" pageWidth="827" pageHeight="1169" math="0" shadow="0">
      <root>
        <mxCell id="0" />
        <mxCell id="1" parent="0" />
        <mxCell id="1XmJx1WI5i3YDK_gQCyh-6" value="" style="ellipse;html=1;shape=startState;fillColor=#000000;strokeColor=#ff0000;" vertex="1" parent="1">
          <mxGeometry x="140" y="80" width="30" height="30" as="geometry" />
        </mxCell>
        <mxCell id="1XmJx1WI5i3YDK_gQCyh-7" value="" style="edgeStyle=orthogonalEdgeStyle;html=1;verticalAlign=bottom;endArrow=open;endSize=8;strokeColor=#ff0000;rounded=0;" edge="1" source="1XmJx1WI5i3YDK_gQCyh-6" parent="1">
          <mxGeometry relative="1" as="geometry">
            <mxPoint x="155" y="150" as="targetPoint" />
          </mxGeometry>
        </mxCell>
        <mxCell id="1XmJx1WI5i3YDK_gQCyh-25" style="edgeStyle=orthogonalEdgeStyle;rounded=0;orthogonalLoop=1;jettySize=auto;html=1;entryX=0.5;entryY=0;entryDx=0;entryDy=0;" edge="1" parent="1" source="1XmJx1WI5i3YDK_gQCyh-8" target="1XmJx1WI5i3YDK_gQCyh-14">
          <mxGeometry relative="1" as="geometry" />
        </mxCell>
        <mxCell id="1XmJx1WI5i3YDK_gQCyh-8" value="GetMessage" style="html=1;whiteSpace=wrap;" vertex="1" parent="1">
          <mxGeometry x="100" y="150" width="110" height="50" as="geometry" />
        </mxCell>
        <mxCell id="1XmJx1WI5i3YDK_gQCyh-41" style="edgeStyle=orthogonalEdgeStyle;rounded=0;orthogonalLoop=1;jettySize=auto;html=1;entryX=1;entryY=0.5;entryDx=0;entryDy=0;" edge="1" parent="1" source="1XmJx1WI5i3YDK_gQCyh-14" target="1XmJx1WI5i3YDK_gQCyh-8">
          <mxGeometry relative="1" as="geometry">
            <Array as="points">
              <mxPoint x="230" y="405" />
              <mxPoint x="230" y="175" />
            </Array>
          </mxGeometry>
        </mxCell>
        <mxCell id="1XmJx1WI5i3YDK_gQCyh-14" value="Client UI" style="html=1;whiteSpace=wrap;" vertex="1" parent="1">
          <mxGeometry x="100" y="380" width="110" height="50" as="geometry" />
        </mxCell>
        <mxCell id="1XmJx1WI5i3YDK_gQCyh-23" value="SubClassing" style="html=1;whiteSpace=wrap;dashed=1;dashPattern=12 12;" vertex="1" parent="1">
          <mxGeometry x="100" y="270" width="110" height="50" as="geometry" />
        </mxCell>
        <mxCell id="1XmJx1WI5i3YDK_gQCyh-26" value="Main UI Thread" style="swimlane;whiteSpace=wrap" vertex="1" parent="1">
          <mxGeometry x="20" y="50" width="280" height="452" as="geometry" />
        </mxCell>
        <mxCell id="1XmJx1WI5i3YDK_gQCyh-42" value="" style="endArrow=none;dashed=1;html=1;dashPattern=1 3;strokeWidth=2;rounded=0;exitX=1;exitY=0.5;exitDx=0;exitDy=0;entryX=0;entryY=0.5;entryDx=0;entryDy=0;" edge="1" parent="1" source="1XmJx1WI5i3YDK_gQCyh-23" target="1XmJx1WI5i3YDK_gQCyh-43">
          <mxGeometry width="50" height="50" relative="1" as="geometry">
            <mxPoint x="350" y="310" as="sourcePoint" />
            <mxPoint x="380" y="295" as="targetPoint" />
          </mxGeometry>
        </mxCell>
        <mxCell id="1XmJx1WI5i3YDK_gQCyh-46" style="edgeStyle=orthogonalEdgeStyle;rounded=0;orthogonalLoop=1;jettySize=auto;html=1;" edge="1" parent="1" source="1XmJx1WI5i3YDK_gQCyh-43" target="1XmJx1WI5i3YDK_gQCyh-47">
          <mxGeometry relative="1" as="geometry">
            <mxPoint x="650" y="210" as="targetPoint" />
          </mxGeometry>
        </mxCell>
        <mxCell id="1XmJx1WI5i3YDK_gQCyh-43" value="Mouse Hook" style="rounded=0;whiteSpace=wrap;html=1;" vertex="1" parent="1">
          <mxGeometry x="430" y="180" width="120" height="60" as="geometry" />
        </mxCell>
        <mxCell id="1XmJx1WI5i3YDK_gQCyh-48" style="edgeStyle=orthogonalEdgeStyle;rounded=0;orthogonalLoop=1;jettySize=auto;html=1;" edge="1" parent="1" source="1XmJx1WI5i3YDK_gQCyh-44" target="1XmJx1WI5i3YDK_gQCyh-49">
          <mxGeometry relative="1" as="geometry">
            <mxPoint x="620" y="295" as="targetPoint" />
          </mxGeometry>
        </mxCell>
        <mxCell id="1XmJx1WI5i3YDK_gQCyh-44" value="SetFocus, KillFocus" style="rounded=0;whiteSpace=wrap;html=1;" vertex="1" parent="1">
          <mxGeometry x="430" y="265" width="120" height="60" as="geometry" />
        </mxCell>
        <mxCell id="1XmJx1WI5i3YDK_gQCyh-47" value="Send Remote Mouse Event" style="text;html=1;align=center;verticalAlign=middle;whiteSpace=wrap;rounded=0;" vertex="1" parent="1">
          <mxGeometry x="620" y="195" width="170" height="30" as="geometry" />
        </mxCell>
        <mxCell id="1XmJx1WI5i3YDK_gQCyh-49" value="StartHook, Stop Hook" style="text;html=1;align=center;verticalAlign=middle;whiteSpace=wrap;rounded=0;" vertex="1" parent="1">
          <mxGeometry x="619" y="280" width="150" height="30" as="geometry" />
        </mxCell>
        <mxCell id="1XmJx1WI5i3YDK_gQCyh-53" value="" style="endArrow=none;dashed=1;html=1;dashPattern=1 3;strokeWidth=2;rounded=0;exitX=1;exitY=0.5;exitDx=0;exitDy=0;" edge="1" parent="1">
          <mxGeometry width="50" height="50" relative="1" as="geometry">
            <mxPoint x="210" y="295" as="sourcePoint" />
            <mxPoint x="430" y="370" as="targetPoint" />
          </mxGeometry>
        </mxCell>
        <mxCell id="1XmJx1WI5i3YDK_gQCyh-55" style="edgeStyle=orthogonalEdgeStyle;rounded=0;orthogonalLoop=1;jettySize=auto;html=1;" edge="1" parent="1" source="1XmJx1WI5i3YDK_gQCyh-54">
          <mxGeometry relative="1" as="geometry">
            <mxPoint x="620" y="380" as="targetPoint" />
          </mxGeometry>
        </mxCell>
        <mxCell id="1XmJx1WI5i3YDK_gQCyh-54" value="SetCursor" style="rounded=0;whiteSpace=wrap;html=1;" vertex="1" parent="1">
          <mxGeometry x="430" y="350" width="120" height="60" as="geometry" />
        </mxCell>
        <mxCell id="1XmJx1WI5i3YDK_gQCyh-56" value="Rendering Local Mouse" style="text;html=1;align=center;verticalAlign=middle;whiteSpace=wrap;rounded=0;" vertex="1" parent="1">
          <mxGeometry x="612" y="365" width="170" height="30" as="geometry" />
        </mxCell>
        <mxCell id="1XmJx1WI5i3YDK_gQCyh-57" value="" style="endArrow=none;dashed=1;html=1;dashPattern=1 3;strokeWidth=2;rounded=0;exitX=1;exitY=0.5;exitDx=0;exitDy=0;entryX=0;entryY=0.5;entryDx=0;entryDy=0;" edge="1" parent="1" source="1XmJx1WI5i3YDK_gQCyh-23" target="1XmJx1WI5i3YDK_gQCyh-44">
          <mxGeometry width="50" height="50" relative="1" as="geometry">
            <mxPoint x="210" y="290" as="sourcePoint" />
            <mxPoint x="430" y="365" as="targetPoint" />
          </mxGeometry>
        </mxCell>
        <mxCell id="1XmJx1WI5i3YDK_gQCyh-58" value=". . ." style="text;html=1;align=center;verticalAlign=middle;whiteSpace=wrap;rounded=0;fontSize=23;fontStyle=1" vertex="1" parent="1">
          <mxGeometry x="460" y="430" width="60" height="30" as="geometry" />
        </mxCell>
      </root>
    </mxGraphModel>
  </diagram>
</mxfile>
